<svg width="162" height="27" viewBox="0 0 162 27" fill="none" xmlns="http://www.w3.org/2000/svg"><defs><path id="logo" d="M1.66752 6.02597C-0.0278795 6.02597 2.83505e-05 8.03577 2.83505e-05 8.03577V17.3931C2.83505e-05 22.2317 3.97689 26.155 8.88168 26.155H9.7259C14.1632 26.155 17.7633 22.6068 17.7633 18.2259V11.226C17.7633 11.1055 17.6657 11.0092 17.5436 11.0092H15.0493C14.7737 11.0092 14.6063 10.7098 14.7563 10.4792L19.5529 3.08698C19.6855 2.88049 19.9925 2.87361 20.132 3.07665L25.3508 10.4689C25.5112 10.696 25.3473 11.0092 25.0647 11.0092H22.6088C22.4867 11.0092 22.3891 11.1055 22.3891 11.226V15.4865C22.3891 15.6895 22.5635 15.8444 22.7658 15.8031C24.1159 15.5209 28.6055 14.0927 28.6055 7.60215C28.6055 -0.0309708 20.9448 2.00719e-06 20.9448 2.00719e-06H13.0016C11.7876 2.00719e-06 11.519 1.53144 11.519 1.53144V17.7234C11.519 18.9933 10.4759 20.0258 9.18518 20.0258C7.89445 20.0258 6.85139 18.9968 6.85139 17.7234V8.03577C6.85139 6.0535 5.53275 6.02597 5.53275 6.02597H1.66752Z" fill="#20B2AA"></path><path id="text-U" d="M45.4311 14.6447V5.67383H48.5303V14.6447C48.5303 16.196 48.2894 17.404 47.8075 18.2687C46.9098 19.853 45.1968 20.6451 42.6686 20.6451C40.1403 20.6451 38.424 19.853 37.5197 18.2687C37.0378 17.404 36.7969 16.196 36.7969 14.6447V5.67383H39.8961V14.6447C39.8961 15.6481 40.0149 16.3808 40.2526 16.8429C40.6222 17.6614 41.4276 18.0707 42.6686 18.0707C43.903 18.0707 44.705 17.6614 45.0747 16.8429C45.3123 16.3808 45.4311 15.6481 45.4311 14.6447Z" fill="#fff"></path><path id="text-p" d="M60.061 10.6346C60.9324 11.5653 61.368 12.9317 61.368 14.7338C61.368 16.635 60.939 18.0839 60.0808 19.0807C59.2293 20.0774 58.1302 20.5758 56.7836 20.5758C55.9254 20.5758 55.2125 20.3613 54.6448 19.9322C54.3346 19.6946 54.0309 19.348 53.7339 18.8925V24.5167H50.9416V9.47607H53.6447V11.0702C53.9484 10.6016 54.2718 10.2319 54.6151 9.96125C55.2422 9.47937 55.9881 9.23843 56.8529 9.23843C58.1137 9.23843 59.1831 9.7038 60.061 10.6346ZM58.457 14.8725C58.457 14.0407 58.2655 13.3047 57.8827 12.6644C57.5064 12.0241 56.8925 11.7039 56.0409 11.7039C55.0178 11.7039 54.3148 12.1891 53.9319 13.1595C53.7339 13.6744 53.6348 14.3279 53.6348 15.12C53.6348 16.3742 53.9682 17.2555 54.6349 17.7638C55.031 18.0608 55.4997 18.2093 56.0409 18.2093C56.8265 18.2093 57.4239 17.9057 57.8331 17.2984C58.249 16.6911 58.457 15.8824 58.457 14.8725Z" fill="#fff"></path><path id="text-s" d="M70.651 9.97115C71.496 10.5124 71.9812 11.4432 72.1066 12.7634H69.2846C69.245 12.4004 69.1427 12.1132 68.9777 11.902C68.6674 11.5191 68.1393 11.3277 67.3934 11.3277C66.7795 11.3277 66.3405 11.4234 66.0765 11.6148C65.819 11.8063 65.6903 12.0307 65.6903 12.2881C65.6903 12.6116 65.8289 12.8459 66.1062 12.9912C66.3834 13.143 67.3637 13.4037 69.047 13.7734C70.1692 14.0374 71.0108 14.4368 71.5719 14.9715C72.1264 15.5128 72.4036 16.1894 72.4036 17.0013C72.4036 18.0707 72.0043 18.9454 71.2055 19.6253C70.4134 20.2986 69.1856 20.6352 67.5221 20.6352C65.8256 20.6352 64.5714 20.2788 63.7595 19.5659C62.9542 18.8463 62.5515 17.9321 62.5515 16.8231H65.4131C65.4725 17.3248 65.6012 17.6812 65.7992 17.8925C66.1491 18.2687 66.796 18.4569 67.74 18.4569C68.2944 18.4569 68.7334 18.3744 69.0569 18.2093C69.3869 18.0443 69.552 17.7968 69.552 17.4667C69.552 17.1499 69.4199 16.9089 69.1559 16.7439C68.8918 16.5789 67.9116 16.295 66.2151 15.8923C64.9939 15.5887 64.1325 15.2091 63.6308 14.7536C63.1291 14.3048 62.8782 13.6579 62.8782 12.8129C62.8782 11.8162 63.2677 10.9613 64.0466 10.2484C64.8322 9.52887 65.9346 9.16911 67.3538 9.16911C68.7004 9.16911 69.7995 9.43646 70.651 9.97115Z" fill="#fff"></path><path id="text-u" d="M81.2213 18.744C81.1949 18.777 81.1288 18.876 81.0232 19.0411C80.9176 19.2061 80.7922 19.3513 80.647 19.4767C80.2047 19.8728 79.7756 20.1435 79.3597 20.2887C78.9505 20.4339 78.4686 20.5065 77.9141 20.5065C76.3166 20.5065 75.2407 19.9322 74.6862 18.7836C74.3759 18.1499 74.2208 17.2159 74.2208 15.9815V9.47607H77.1121V15.9815C77.1121 16.5954 77.1847 17.0574 77.3299 17.3677C77.5873 17.9156 78.0923 18.1895 78.8449 18.1895C79.8086 18.1895 80.4687 17.8001 80.8252 17.0211C81.01 16.5987 81.1024 16.0409 81.1024 15.3477V9.47607H83.964V20.2689H81.2213V18.744Z" fill="#fff"></path><path id="text-r" d="M91.9202 12.0802C90.7848 12.0802 90.0224 12.4499 89.6329 13.1892C89.4151 13.6051 89.3062 14.2454 89.3062 15.1101V20.2689H86.4644V9.47607H89.1576V11.3574C89.5933 10.6379 89.9729 10.1461 90.2963 9.88203C90.8244 9.43976 91.5109 9.21862 92.3559 9.21862C92.4087 9.21862 92.4516 9.22192 92.4846 9.22852C92.5242 9.22852 92.6067 9.23182 92.7321 9.23843V12.1297C92.5539 12.1099 92.3955 12.0967 92.2569 12.0901C92.1182 12.0835 92.006 12.0802 91.9202 12.0802Z" fill="#fff"></path><path id="text-g" d="M97.2425 22.1601C97.5462 22.4175 98.0578 22.5463 98.7773 22.5463C99.7939 22.5463 100.474 22.2063 100.817 21.5264C101.041 21.0907 101.154 20.358 101.154 19.3282V18.6351C100.883 19.0972 100.593 19.4437 100.282 19.6748C99.7212 20.1038 98.9918 20.3184 98.0941 20.3184C96.7078 20.3184 95.5989 19.8332 94.7671 18.8628C93.942 17.8859 93.5294 16.5657 93.5294 14.9022C93.5294 13.2981 93.9288 11.9515 94.7275 10.8623C95.5262 9.76651 96.6583 9.21862 98.1238 9.21862C98.6651 9.21862 99.1371 9.30114 99.5397 9.46616C100.226 9.75001 100.781 10.2715 101.203 11.0306V9.47607H103.946V19.7144C103.946 21.1072 103.712 22.1568 103.243 22.8631C102.438 24.0777 100.893 24.685 98.609 24.685C97.2293 24.685 96.1038 24.4144 95.2325 23.8731C94.3612 23.3318 93.8793 22.5232 93.7869 21.4472H96.8564C96.9356 21.7772 97.0643 22.0149 97.2425 22.1601ZM96.7673 16.5855C97.1501 17.4964 97.8366 17.9519 98.8268 17.9519C99.4869 17.9519 100.045 17.7043 100.5 17.2093C100.956 16.7076 101.183 15.9121 101.183 14.823C101.183 13.7998 100.966 13.0209 100.53 12.4862C100.101 11.9515 99.5232 11.6841 98.7971 11.6841C97.8069 11.6841 97.1237 12.1495 96.7475 13.0803C96.5494 13.5754 96.4504 14.186 96.4504 14.9121C96.4504 15.5392 96.556 16.097 96.7673 16.5855Z" fill="#fff"></path><path id="text-e" d="M115.625 17.1003C115.553 17.7407 115.219 18.3909 114.625 19.051C113.701 20.1005 112.407 20.6253 110.744 20.6253C109.371 20.6253 108.159 20.1831 107.11 19.2985C106.06 18.414 105.535 16.9749 105.535 14.9814C105.535 13.1133 106.007 11.6808 106.951 10.6841C107.902 9.6873 109.133 9.18892 110.645 9.18892C111.542 9.18892 112.351 9.35725 113.071 9.6939C113.79 10.0306 114.384 10.5619 114.853 11.2881C115.275 11.9284 115.549 12.671 115.675 13.5159C115.747 14.011 115.777 14.7239 115.764 15.6547H108.377C108.417 16.7373 108.757 17.4964 109.397 17.9321C109.786 18.2027 110.255 18.3381 110.803 18.3381C111.384 18.3381 111.856 18.173 112.219 17.843C112.417 17.6647 112.592 17.4172 112.744 17.1003H115.625ZM112.833 13.7932C112.787 13.0473 112.559 12.4829 112.15 12.1C111.747 11.7105 111.245 11.5158 110.645 11.5158C109.991 11.5158 109.483 11.7204 109.12 12.1297C108.763 12.539 108.539 13.0935 108.446 13.7932H112.833Z" fill="#fff"></path><path id="text-dot" d="M117.423 17.3182H120.423V20.2689H117.423V17.3182Z" fill="#fff"></path><path id="text-c" d="M132.25 13.3476H129.359C129.306 12.9449 129.171 12.5819 128.953 12.2584C128.636 11.8228 128.145 11.6049 127.478 11.6049C126.527 11.6049 125.877 12.0769 125.527 13.0209C125.342 13.5225 125.25 14.1893 125.25 15.021C125.25 15.8131 125.342 16.4501 125.527 16.932C125.864 17.8298 126.498 18.2786 127.428 18.2786C128.088 18.2786 128.557 18.1004 128.834 17.744C129.112 17.3875 129.28 16.9254 129.339 16.3577H132.221C132.155 17.2159 131.844 18.0278 131.29 18.7935C130.405 20.0279 129.095 20.6451 127.359 20.6451C125.623 20.6451 124.346 20.1303 123.527 19.1005C122.709 18.0707 122.299 16.734 122.299 15.0903C122.299 13.2354 122.751 11.7931 123.656 10.7633C124.56 9.73351 125.808 9.21862 127.399 9.21862C128.752 9.21862 129.858 9.52227 130.716 10.1296C131.58 10.7369 132.092 11.8096 132.25 13.3476Z" fill="#fff"></path><path id="text-l" d="M134.058 5.67383H136.88V20.2689H134.058V5.67383Z" fill="#fff"></path><path id="text-u2" d="M146.361 18.744C146.334 18.777 146.268 18.876 146.163 19.0411C146.057 19.2061 145.932 19.3513 145.786 19.4767C145.344 19.8728 144.915 20.1435 144.499 20.2887C144.09 20.4339 143.608 20.5065 143.054 20.5065C141.456 20.5065 140.38 19.9322 139.826 18.7836C139.515 18.1499 139.36 17.2159 139.36 15.9815V9.47607H142.252V15.9815C142.252 16.5954 142.324 17.0574 142.469 17.3677C142.727 17.9156 143.232 18.1895 143.984 18.1895C144.948 18.1895 145.608 17.8001 145.965 17.0211C146.149 16.5987 146.242 16.0409 146.242 15.3477V9.47607H149.103V20.2689H146.361V18.744Z" fill="#fff"></path><path id="text-b" d="M157.495 20.556C156.604 20.556 155.888 20.3778 155.347 20.0213C155.023 19.8101 154.673 19.4404 154.297 18.9123V20.2689H151.535V5.69363H154.347V10.8821C154.703 10.3804 155.096 9.99755 155.525 9.73351C156.033 9.40345 156.68 9.23843 157.466 9.23843C158.885 9.23843 159.994 9.75001 160.793 10.7732C161.598 11.7964 162.001 13.1166 162.001 14.7338C162.001 16.4105 161.604 17.8001 160.812 18.9024C160.02 20.0048 158.915 20.556 157.495 20.556ZM159.04 15.0309C159.04 14.2652 158.941 13.6315 158.743 13.1298C158.367 12.1792 157.674 11.7039 156.664 11.7039C155.64 11.7039 154.937 12.1693 154.555 13.1001C154.356 13.5952 154.257 14.2355 154.257 15.021C154.257 15.9452 154.462 16.7109 154.871 17.3182C155.281 17.9255 155.904 18.2291 156.743 18.2291C157.469 18.2291 158.033 17.9354 158.436 17.3479C158.839 16.7604 159.04 15.9881 159.04 15.0309Z" fill="#fff"></path></defs><g><use href="#logo"></use><use href="#text-U"></use><use href="#text-p"></use><use href="#text-s"></use><use href="#text-u"></use><use href="#text-r"></use><use href="#text-g"></use><use href="#text-e"></use><use href="#text-dot"></use><use href="#text-c"></use><use href="#text-l"></use><use href="#text-u2"></use><use href="#text-b"></use></g></svg>